<mxfile host="app.diagrams.net" agent="Mozilla/5.0 (Macintosh; Intel Mac OS X 10.15; rv:131.0) Gecko/20100101 Firefox/131.0" modified="2024-10-03T22:55:28.069Z" version="24.3.1" etag="cHJ5cTtNiERIuNNXQnkf" type="device">
  <diagram name="Page-1" id="ad52d381-51e7-2e0d-a935-2d0ddd2fd229">
    <mxGraphModel dx="2561" dy="1784" grid="1" gridSize="10" guides="1" tooltips="1" connect="1" arrows="1" fold="1" page="1" pageScale="1" pageWidth="1100" pageHeight="850" background="none" math="0" shadow="0">
      <root>
        <mxCell id="0" />
        <mxCell id="1" parent="0" />
        <mxCell id="rk89OR3VtX5FbfcCzR7j-180" value="" style="endArrow=none;html=1;rounded=0;exitX=0.5;exitY=1;exitDx=0;exitDy=0;" edge="1" source="rk89OR3VtX5FbfcCzR7j-181" parent="1">
          <mxGeometry relative="1" as="geometry">
            <mxPoint x="-310" y="30" as="sourcePoint" />
            <mxPoint x="-80" y="190" as="targetPoint" />
          </mxGeometry>
        </mxCell>
        <mxCell id="rk89OR3VtX5FbfcCzR7j-156" value="" style="endArrow=none;html=1;rounded=0;exitX=0.5;exitY=1;exitDx=0;exitDy=0;entryX=0.5;entryY=0;entryDx=0;entryDy=0;" edge="1" source="rk89OR3VtX5FbfcCzR7j-155" parent="1" target="rk89OR3VtX5FbfcCzR7j-87">
          <mxGeometry relative="1" as="geometry">
            <mxPoint x="-220" y="60" as="sourcePoint" />
            <mxPoint x="-150" y="100" as="targetPoint" />
          </mxGeometry>
        </mxCell>
        <mxCell id="rk89OR3VtX5FbfcCzR7j-1" value="User" style="whiteSpace=wrap;html=1;align=center;" vertex="1" parent="1">
          <mxGeometry x="250" y="190" width="100" height="40" as="geometry" />
        </mxCell>
        <mxCell id="rk89OR3VtX5FbfcCzR7j-5" value="Info" style="whiteSpace=wrap;html=1;align=center;" vertex="1" parent="1">
          <mxGeometry x="250" y="420" width="100" height="40" as="geometry" />
        </mxCell>
        <mxCell id="rk89OR3VtX5FbfcCzR7j-10" value="" style="endArrow=none;html=1;rounded=0;exitX=0.5;exitY=1;exitDx=0;exitDy=0;entryX=0.5;entryY=0;entryDx=0;entryDy=0;" edge="1" parent="1" source="rk89OR3VtX5FbfcCzR7j-1" target="rk89OR3VtX5FbfcCzR7j-59">
          <mxGeometry relative="1" as="geometry">
            <mxPoint x="570" y="410" as="sourcePoint" />
            <mxPoint x="300" y="300" as="targetPoint" />
          </mxGeometry>
        </mxCell>
        <mxCell id="rk89OR3VtX5FbfcCzR7j-11" value="1" style="resizable=0;html=1;whiteSpace=wrap;align=right;verticalAlign=bottom;" connectable="0" vertex="1" parent="rk89OR3VtX5FbfcCzR7j-10">
          <mxGeometry x="1" relative="1" as="geometry" />
        </mxCell>
        <mxCell id="rk89OR3VtX5FbfcCzR7j-19" value="" style="endArrow=none;html=1;rounded=0;exitX=0.5;exitY=1;exitDx=0;exitDy=0;entryX=0.5;entryY=0;entryDx=0;entryDy=0;" edge="1" parent="1" source="rk89OR3VtX5FbfcCzR7j-15" target="rk89OR3VtX5FbfcCzR7j-1">
          <mxGeometry relative="1" as="geometry">
            <mxPoint x="420" y="120" as="sourcePoint" />
            <mxPoint x="320" y="190" as="targetPoint" />
          </mxGeometry>
        </mxCell>
        <mxCell id="rk89OR3VtX5FbfcCzR7j-20" value="" style="endArrow=none;html=1;rounded=0;exitX=0.5;exitY=1;exitDx=0;exitDy=0;entryX=0.5;entryY=0;entryDx=0;entryDy=0;" edge="1" parent="1" source="rk89OR3VtX5FbfcCzR7j-16" target="rk89OR3VtX5FbfcCzR7j-1">
          <mxGeometry relative="1" as="geometry">
            <mxPoint x="370" y="70" as="sourcePoint" />
            <mxPoint x="320" y="190" as="targetPoint" />
          </mxGeometry>
        </mxCell>
        <mxCell id="rk89OR3VtX5FbfcCzR7j-21" value="" style="endArrow=none;html=1;rounded=0;exitX=0.5;exitY=1;exitDx=0;exitDy=0;exitPerimeter=0;entryX=0.5;entryY=0;entryDx=0;entryDy=0;" edge="1" parent="1" source="rk89OR3VtX5FbfcCzR7j-22" target="rk89OR3VtX5FbfcCzR7j-1">
          <mxGeometry relative="1" as="geometry">
            <mxPoint x="200" y="120" as="sourcePoint" />
            <mxPoint x="190" y="160" as="targetPoint" />
          </mxGeometry>
        </mxCell>
        <mxCell id="rk89OR3VtX5FbfcCzR7j-23" value="Staff" style="whiteSpace=wrap;html=1;align=center;" vertex="1" parent="1">
          <mxGeometry x="640" y="210" width="100" height="40" as="geometry" />
        </mxCell>
        <mxCell id="rk89OR3VtX5FbfcCzR7j-24" value="Staff Info" style="whiteSpace=wrap;html=1;align=center;" vertex="1" parent="1">
          <mxGeometry x="640" y="435" width="100" height="40" as="geometry" />
        </mxCell>
        <mxCell id="rk89OR3VtX5FbfcCzR7j-27" value="PWD" style="ellipse;whiteSpace=wrap;html=1;align=center;" vertex="1" parent="1">
          <mxGeometry x="690" y="90" width="100" height="40" as="geometry" />
        </mxCell>
        <mxCell id="rk89OR3VtX5FbfcCzR7j-28" value="UserName" style="ellipse;whiteSpace=wrap;html=1;align=center;fontStyle=0" vertex="1" parent="1">
          <mxGeometry x="590" y="80" width="100" height="40" as="geometry" />
        </mxCell>
        <mxCell id="rk89OR3VtX5FbfcCzR7j-29" value="" style="endArrow=none;html=1;rounded=0;exitX=0.5;exitY=1;exitDx=0;exitDy=0;entryX=0.5;entryY=0;entryDx=0;entryDy=0;" edge="1" source="rk89OR3VtX5FbfcCzR7j-27" target="rk89OR3VtX5FbfcCzR7j-23" parent="1">
          <mxGeometry relative="1" as="geometry">
            <mxPoint x="750" y="150" as="sourcePoint" />
            <mxPoint x="650" y="220" as="targetPoint" />
          </mxGeometry>
        </mxCell>
        <mxCell id="rk89OR3VtX5FbfcCzR7j-30" value="" style="endArrow=none;html=1;rounded=0;exitX=0.5;exitY=1;exitDx=0;exitDy=0;entryX=0.5;entryY=0;entryDx=0;entryDy=0;" edge="1" source="rk89OR3VtX5FbfcCzR7j-28" target="rk89OR3VtX5FbfcCzR7j-23" parent="1">
          <mxGeometry relative="1" as="geometry">
            <mxPoint x="700" y="100" as="sourcePoint" />
            <mxPoint x="650" y="220" as="targetPoint" />
          </mxGeometry>
        </mxCell>
        <mxCell id="rk89OR3VtX5FbfcCzR7j-31" value="" style="endArrow=none;html=1;rounded=0;exitX=0.5;exitY=1;exitDx=0;exitDy=0;exitPerimeter=0;entryX=0.5;entryY=0;entryDx=0;entryDy=0;" edge="1" source="rk89OR3VtX5FbfcCzR7j-32" parent="1" target="rk89OR3VtX5FbfcCzR7j-23">
          <mxGeometry relative="1" as="geometry">
            <mxPoint x="530" y="150" as="sourcePoint" />
            <mxPoint x="640" y="210" as="targetPoint" />
          </mxGeometry>
        </mxCell>
        <mxCell id="rk89OR3VtX5FbfcCzR7j-32" value="SID" style="ellipse;whiteSpace=wrap;html=1;align=center;fontStyle=4;" vertex="1" parent="1">
          <mxGeometry x="580" y="140" width="100" height="40" as="geometry" />
        </mxCell>
        <mxCell id="rk89OR3VtX5FbfcCzR7j-33" value="Access Level" style="ellipse;whiteSpace=wrap;html=1;align=center;" vertex="1" parent="1">
          <mxGeometry x="690" y="140" width="100" height="40" as="geometry" />
        </mxCell>
        <mxCell id="rk89OR3VtX5FbfcCzR7j-34" value="" style="endArrow=none;html=1;rounded=0;exitX=0.5;exitY=1;exitDx=0;exitDy=0;entryX=0.5;entryY=0;entryDx=0;entryDy=0;" edge="1" source="rk89OR3VtX5FbfcCzR7j-33" parent="1" target="rk89OR3VtX5FbfcCzR7j-23">
          <mxGeometry relative="1" as="geometry">
            <mxPoint x="880" y="170" as="sourcePoint" />
            <mxPoint x="640" y="210" as="targetPoint" />
          </mxGeometry>
        </mxCell>
        <mxCell id="rk89OR3VtX5FbfcCzR7j-47" value="" style="endArrow=none;html=1;rounded=0;exitX=0.5;exitY=0;exitDx=0;exitDy=0;entryX=0.5;entryY=1;entryDx=0;entryDy=0;" edge="1" source="rk89OR3VtX5FbfcCzR7j-46" parent="1" target="rk89OR3VtX5FbfcCzR7j-5">
          <mxGeometry relative="1" as="geometry">
            <mxPoint x="440" y="570" as="sourcePoint" />
            <mxPoint x="250" y="510" as="targetPoint" />
          </mxGeometry>
        </mxCell>
        <mxCell id="rk89OR3VtX5FbfcCzR7j-49" value="" style="endArrow=none;html=1;rounded=0;exitX=0.5;exitY=0;exitDx=0;exitDy=0;entryX=0.5;entryY=1;entryDx=0;entryDy=0;" edge="1" source="rk89OR3VtX5FbfcCzR7j-48" parent="1" target="rk89OR3VtX5FbfcCzR7j-5">
          <mxGeometry relative="1" as="geometry">
            <mxPoint x="450" y="580" as="sourcePoint" />
            <mxPoint x="310" y="470" as="targetPoint" />
          </mxGeometry>
        </mxCell>
        <mxCell id="rk89OR3VtX5FbfcCzR7j-51" value="" style="endArrow=none;html=1;rounded=0;exitX=0.5;exitY=0;exitDx=0;exitDy=0;entryX=0.5;entryY=1;entryDx=0;entryDy=0;" edge="1" source="rk89OR3VtX5FbfcCzR7j-50" parent="1" target="rk89OR3VtX5FbfcCzR7j-5">
          <mxGeometry relative="1" as="geometry">
            <mxPoint x="460" y="590" as="sourcePoint" />
            <mxPoint x="320" y="480" as="targetPoint" />
          </mxGeometry>
        </mxCell>
        <mxCell id="rk89OR3VtX5FbfcCzR7j-53" value="" style="endArrow=none;html=1;rounded=0;exitX=0.5;exitY=0;exitDx=0;exitDy=0;entryX=0.5;entryY=1;entryDx=0;entryDy=0;" edge="1" source="rk89OR3VtX5FbfcCzR7j-52" parent="1" target="rk89OR3VtX5FbfcCzR7j-5">
          <mxGeometry relative="1" as="geometry">
            <mxPoint x="470" y="600" as="sourcePoint" />
            <mxPoint x="330" y="490" as="targetPoint" />
          </mxGeometry>
        </mxCell>
        <mxCell id="rk89OR3VtX5FbfcCzR7j-55" value="" style="endArrow=none;html=1;rounded=0;exitX=0.5;exitY=0;exitDx=0;exitDy=0;" edge="1" source="rk89OR3VtX5FbfcCzR7j-54" parent="1">
          <mxGeometry relative="1" as="geometry">
            <mxPoint x="690" y="625" as="sourcePoint" />
            <mxPoint x="300" y="460" as="targetPoint" />
          </mxGeometry>
        </mxCell>
        <mxCell id="rk89OR3VtX5FbfcCzR7j-57" value="" style="endArrow=none;html=1;rounded=0;exitX=0.5;exitY=0;exitDx=0;exitDy=0;" edge="1" source="rk89OR3VtX5FbfcCzR7j-62" parent="1">
          <mxGeometry relative="1" as="geometry">
            <mxPoint x="440" y="520" as="sourcePoint" />
            <mxPoint x="300" y="460" as="targetPoint" />
          </mxGeometry>
        </mxCell>
        <mxCell id="rk89OR3VtX5FbfcCzR7j-59" value="Has Info" style="shape=rhombus;perimeter=rhombusPerimeter;whiteSpace=wrap;html=1;align=center;" vertex="1" parent="1">
          <mxGeometry x="240" y="300" width="120" height="60" as="geometry" />
        </mxCell>
        <mxCell id="rk89OR3VtX5FbfcCzR7j-60" value="" style="endArrow=none;html=1;rounded=0;exitX=0.5;exitY=0;exitDx=0;exitDy=0;entryX=0.5;entryY=1;entryDx=0;entryDy=0;" edge="1" parent="1" source="rk89OR3VtX5FbfcCzR7j-5" target="rk89OR3VtX5FbfcCzR7j-59">
          <mxGeometry relative="1" as="geometry">
            <mxPoint x="310" y="240" as="sourcePoint" />
            <mxPoint x="340" y="380" as="targetPoint" />
          </mxGeometry>
        </mxCell>
        <mxCell id="rk89OR3VtX5FbfcCzR7j-61" value="1" style="resizable=0;html=1;whiteSpace=wrap;align=right;verticalAlign=bottom;" connectable="0" vertex="1" parent="rk89OR3VtX5FbfcCzR7j-60">
          <mxGeometry x="1" relative="1" as="geometry" />
        </mxCell>
        <mxCell id="rk89OR3VtX5FbfcCzR7j-74" value="" style="endArrow=none;html=1;rounded=0;exitX=0.5;exitY=0;exitDx=0;exitDy=0;entryX=0.5;entryY=1;entryDx=0;entryDy=0;" edge="1" source="rk89OR3VtX5FbfcCzR7j-75" parent="1" target="rk89OR3VtX5FbfcCzR7j-24">
          <mxGeometry relative="1" as="geometry">
            <mxPoint x="910" y="590" as="sourcePoint" />
            <mxPoint x="770" y="530" as="targetPoint" />
          </mxGeometry>
        </mxCell>
        <mxCell id="rk89OR3VtX5FbfcCzR7j-65" value="" style="endArrow=none;html=1;rounded=0;exitX=0.5;exitY=0;exitDx=0;exitDy=0;entryX=0.5;entryY=1;entryDx=0;entryDy=0;" edge="1" source="rk89OR3VtX5FbfcCzR7j-64" parent="1" target="rk89OR3VtX5FbfcCzR7j-24">
          <mxGeometry relative="1" as="geometry">
            <mxPoint x="910" y="640" as="sourcePoint" />
            <mxPoint x="770" y="530" as="targetPoint" />
          </mxGeometry>
        </mxCell>
        <mxCell id="rk89OR3VtX5FbfcCzR7j-67" value="" style="endArrow=none;html=1;rounded=0;exitX=0.5;exitY=0;exitDx=0;exitDy=0;entryX=0.5;entryY=1;entryDx=0;entryDy=0;" edge="1" source="rk89OR3VtX5FbfcCzR7j-66" parent="1" target="rk89OR3VtX5FbfcCzR7j-24">
          <mxGeometry relative="1" as="geometry">
            <mxPoint x="920" y="650" as="sourcePoint" />
            <mxPoint x="770" y="530" as="targetPoint" />
          </mxGeometry>
        </mxCell>
        <mxCell id="rk89OR3VtX5FbfcCzR7j-69" value="" style="endArrow=none;html=1;rounded=0;exitX=0.5;exitY=0;exitDx=0;exitDy=0;entryX=0.5;entryY=1;entryDx=0;entryDy=0;" edge="1" source="rk89OR3VtX5FbfcCzR7j-68" parent="1" target="rk89OR3VtX5FbfcCzR7j-24">
          <mxGeometry relative="1" as="geometry">
            <mxPoint x="930" y="660" as="sourcePoint" />
            <mxPoint x="770" y="530" as="targetPoint" />
          </mxGeometry>
        </mxCell>
        <mxCell id="rk89OR3VtX5FbfcCzR7j-71" value="" style="endArrow=none;html=1;rounded=0;exitX=0.5;exitY=0;exitDx=0;exitDy=0;entryX=0.5;entryY=1;entryDx=0;entryDy=0;" edge="1" source="rk89OR3VtX5FbfcCzR7j-70" parent="1" target="rk89OR3VtX5FbfcCzR7j-24">
          <mxGeometry relative="1" as="geometry">
            <mxPoint x="940" y="670" as="sourcePoint" />
            <mxPoint x="770" y="530" as="targetPoint" />
          </mxGeometry>
        </mxCell>
        <mxCell id="rk89OR3VtX5FbfcCzR7j-73" value="" style="endArrow=none;html=1;rounded=0;exitX=0.5;exitY=0;exitDx=0;exitDy=0;entryX=0.5;entryY=1;entryDx=0;entryDy=0;" edge="1" source="rk89OR3VtX5FbfcCzR7j-72" parent="1" target="rk89OR3VtX5FbfcCzR7j-24">
          <mxGeometry relative="1" as="geometry">
            <mxPoint x="1160" y="695" as="sourcePoint" />
            <mxPoint x="770" y="530" as="targetPoint" />
          </mxGeometry>
        </mxCell>
        <mxCell id="rk89OR3VtX5FbfcCzR7j-78" value="" style="endArrow=none;html=1;rounded=0;exitX=0.5;exitY=1;exitDx=0;exitDy=0;entryX=0.5;entryY=0;entryDx=0;entryDy=0;" edge="1" target="rk89OR3VtX5FbfcCzR7j-80" parent="1" source="rk89OR3VtX5FbfcCzR7j-23">
          <mxGeometry relative="1" as="geometry">
            <mxPoint x="330" y="270" as="sourcePoint" />
            <mxPoint x="330" y="340" as="targetPoint" />
          </mxGeometry>
        </mxCell>
        <mxCell id="rk89OR3VtX5FbfcCzR7j-79" value="1" style="resizable=0;html=1;whiteSpace=wrap;align=right;verticalAlign=bottom;" connectable="0" vertex="1" parent="rk89OR3VtX5FbfcCzR7j-78">
          <mxGeometry x="1" relative="1" as="geometry" />
        </mxCell>
        <mxCell id="rk89OR3VtX5FbfcCzR7j-80" value="Has Info" style="shape=rhombus;perimeter=rhombusPerimeter;whiteSpace=wrap;html=1;align=center;" vertex="1" parent="1">
          <mxGeometry x="630" y="310" width="120" height="60" as="geometry" />
        </mxCell>
        <mxCell id="rk89OR3VtX5FbfcCzR7j-81" value="" style="endArrow=none;html=1;rounded=0;exitX=0.5;exitY=0;exitDx=0;exitDy=0;entryX=0.5;entryY=1;entryDx=0;entryDy=0;" edge="1" target="rk89OR3VtX5FbfcCzR7j-80" parent="1" source="rk89OR3VtX5FbfcCzR7j-24">
          <mxGeometry relative="1" as="geometry">
            <mxPoint x="330" y="460" as="sourcePoint" />
            <mxPoint x="370" y="420" as="targetPoint" />
          </mxGeometry>
        </mxCell>
        <mxCell id="rk89OR3VtX5FbfcCzR7j-82" value="1" style="resizable=0;html=1;whiteSpace=wrap;align=right;verticalAlign=bottom;" connectable="0" vertex="1" parent="rk89OR3VtX5FbfcCzR7j-81">
          <mxGeometry x="1" relative="1" as="geometry" />
        </mxCell>
        <mxCell id="rk89OR3VtX5FbfcCzR7j-85" value="" style="endArrow=none;html=1;rounded=0;exitX=0.5;exitY=0;exitDx=0;exitDy=0;entryX=0.5;entryY=1;entryDx=0;entryDy=0;" edge="1" parent="1" source="rk89OR3VtX5FbfcCzR7j-83" target="rk89OR3VtX5FbfcCzR7j-24">
          <mxGeometry relative="1" as="geometry">
            <mxPoint x="940" y="615" as="sourcePoint" />
            <mxPoint x="700" y="485" as="targetPoint" />
          </mxGeometry>
        </mxCell>
        <mxCell id="rk89OR3VtX5FbfcCzR7j-86" value="" style="endArrow=none;html=1;rounded=0;exitX=0.5;exitY=0;exitDx=0;exitDy=0;entryX=0.5;entryY=1;entryDx=0;entryDy=0;" edge="1" parent="1" source="rk89OR3VtX5FbfcCzR7j-84" target="rk89OR3VtX5FbfcCzR7j-24">
          <mxGeometry relative="1" as="geometry">
            <mxPoint x="950" y="625" as="sourcePoint" />
            <mxPoint x="710" y="495" as="targetPoint" />
          </mxGeometry>
        </mxCell>
        <mxCell id="rk89OR3VtX5FbfcCzR7j-87" value="Auction" style="whiteSpace=wrap;html=1;align=center;" vertex="1" parent="1">
          <mxGeometry x="-130" y="190" width="100" height="40" as="geometry" />
        </mxCell>
        <mxCell id="rk89OR3VtX5FbfcCzR7j-88" value="" style="endArrow=none;html=1;rounded=0;exitX=1;exitY=0.5;exitDx=0;exitDy=0;entryX=0;entryY=0.5;entryDx=0;entryDy=0;" edge="1" source="rk89OR3VtX5FbfcCzR7j-87" target="rk89OR3VtX5FbfcCzR7j-96" parent="1">
          <mxGeometry relative="1" as="geometry">
            <mxPoint x="230" y="400" as="sourcePoint" />
            <mxPoint x="-40" y="290" as="targetPoint" />
          </mxGeometry>
        </mxCell>
        <mxCell id="rk89OR3VtX5FbfcCzR7j-89" value="&lt;div&gt;&lt;br&gt;&lt;/div&gt;&lt;div&gt;N&lt;br&gt;&lt;/div&gt;" style="resizable=0;html=1;whiteSpace=wrap;align=right;verticalAlign=bottom;" connectable="0" vertex="1" parent="rk89OR3VtX5FbfcCzR7j-88">
          <mxGeometry x="1" relative="1" as="geometry" />
        </mxCell>
        <mxCell id="rk89OR3VtX5FbfcCzR7j-92" value="" style="endArrow=none;html=1;rounded=0;exitX=0.5;exitY=1;exitDx=0;exitDy=0;entryX=0.5;entryY=0;entryDx=0;entryDy=0;" edge="1" source="rk89OR3VtX5FbfcCzR7j-90" target="rk89OR3VtX5FbfcCzR7j-87" parent="1">
          <mxGeometry relative="1" as="geometry">
            <mxPoint x="80" y="110" as="sourcePoint" />
            <mxPoint x="-20" y="180" as="targetPoint" />
          </mxGeometry>
        </mxCell>
        <mxCell id="rk89OR3VtX5FbfcCzR7j-93" value="" style="endArrow=none;html=1;rounded=0;exitX=0.5;exitY=1;exitDx=0;exitDy=0;entryX=0.5;entryY=0;entryDx=0;entryDy=0;" edge="1" source="rk89OR3VtX5FbfcCzR7j-91" target="rk89OR3VtX5FbfcCzR7j-87" parent="1">
          <mxGeometry relative="1" as="geometry">
            <mxPoint x="30" y="60" as="sourcePoint" />
            <mxPoint x="-20" y="180" as="targetPoint" />
          </mxGeometry>
        </mxCell>
        <mxCell id="rk89OR3VtX5FbfcCzR7j-94" value="" style="endArrow=none;html=1;rounded=0;exitX=0.5;exitY=1;exitDx=0;exitDy=0;exitPerimeter=0;entryX=0.5;entryY=0;entryDx=0;entryDy=0;" edge="1" source="rk89OR3VtX5FbfcCzR7j-95" target="rk89OR3VtX5FbfcCzR7j-87" parent="1">
          <mxGeometry relative="1" as="geometry">
            <mxPoint x="-140" y="110" as="sourcePoint" />
            <mxPoint x="-150" y="150" as="targetPoint" />
          </mxGeometry>
        </mxCell>
        <mxCell id="rk89OR3VtX5FbfcCzR7j-96" value="Sells" style="shape=rhombus;perimeter=rhombusPerimeter;whiteSpace=wrap;html=1;align=center;" vertex="1" parent="1">
          <mxGeometry x="50" y="180" width="120" height="60" as="geometry" />
        </mxCell>
        <mxCell id="rk89OR3VtX5FbfcCzR7j-98" value="" style="endArrow=none;html=1;rounded=0;exitX=0;exitY=0.5;exitDx=0;exitDy=0;entryX=1;entryY=0.5;entryDx=0;entryDy=0;" edge="1" parent="1" source="rk89OR3VtX5FbfcCzR7j-1" target="rk89OR3VtX5FbfcCzR7j-96">
          <mxGeometry relative="1" as="geometry">
            <mxPoint x="310" y="430" as="sourcePoint" />
            <mxPoint x="310" y="370" as="targetPoint" />
          </mxGeometry>
        </mxCell>
        <mxCell id="rk89OR3VtX5FbfcCzR7j-99" value="N" style="resizable=0;html=1;whiteSpace=wrap;align=right;verticalAlign=bottom;" connectable="0" vertex="1" parent="rk89OR3VtX5FbfcCzR7j-98">
          <mxGeometry x="1" relative="1" as="geometry" />
        </mxCell>
        <mxCell id="rk89OR3VtX5FbfcCzR7j-102" value="" style="endArrow=none;html=1;rounded=0;exitX=0.5;exitY=1;exitDx=0;exitDy=0;entryX=0.5;entryY=0;entryDx=0;entryDy=0;" edge="1" parent="1" source="rk89OR3VtX5FbfcCzR7j-101" target="rk89OR3VtX5FbfcCzR7j-87">
          <mxGeometry relative="1" as="geometry">
            <mxPoint x="-160" y="140" as="sourcePoint" />
            <mxPoint x="-60" y="200" as="targetPoint" />
          </mxGeometry>
        </mxCell>
        <mxCell id="rk89OR3VtX5FbfcCzR7j-114" value="" style="endArrow=none;html=1;rounded=0;exitX=0.5;exitY=1;exitDx=0;exitDy=0;entryX=0.5;entryY=0;entryDx=0;entryDy=0;" edge="1" source="rk89OR3VtX5FbfcCzR7j-113" parent="1" target="rk89OR3VtX5FbfcCzR7j-87">
          <mxGeometry relative="1" as="geometry">
            <mxPoint x="-150" y="150" as="sourcePoint" />
            <mxPoint x="-160" y="160" as="targetPoint" />
          </mxGeometry>
        </mxCell>
        <mxCell id="rk89OR3VtX5FbfcCzR7j-116" value="" style="endArrow=none;html=1;rounded=0;exitX=0.5;exitY=1;exitDx=0;exitDy=0;entryX=0.5;entryY=0;entryDx=0;entryDy=0;" edge="1" source="rk89OR3VtX5FbfcCzR7j-115" parent="1" target="rk89OR3VtX5FbfcCzR7j-87">
          <mxGeometry relative="1" as="geometry">
            <mxPoint x="-140" y="160" as="sourcePoint" />
            <mxPoint x="-50" y="210" as="targetPoint" />
          </mxGeometry>
        </mxCell>
        <mxCell id="rk89OR3VtX5FbfcCzR7j-120" value="" style="endArrow=none;html=1;rounded=0;exitX=0.5;exitY=1;exitDx=0;exitDy=0;entryX=0.5;entryY=0;entryDx=0;entryDy=0;" edge="1" source="rk89OR3VtX5FbfcCzR7j-119" parent="1" target="rk89OR3VtX5FbfcCzR7j-87">
          <mxGeometry relative="1" as="geometry">
            <mxPoint x="-350" y="180" as="sourcePoint" />
            <mxPoint x="-260" y="230" as="targetPoint" />
          </mxGeometry>
        </mxCell>
        <mxCell id="rk89OR3VtX5FbfcCzR7j-122" value="Bids" style="whiteSpace=wrap;html=1;align=center;direction=west;" vertex="1" parent="1">
          <mxGeometry x="-130" y="370" width="100" height="40" as="geometry" />
        </mxCell>
        <mxCell id="rk89OR3VtX5FbfcCzR7j-123" value="" style="endArrow=none;html=1;rounded=0;exitX=0;exitY=0.5;exitDx=0;exitDy=0;entryX=0;entryY=0.5;entryDx=0;entryDy=0;" edge="1" source="rk89OR3VtX5FbfcCzR7j-122" target="rk89OR3VtX5FbfcCzR7j-131" parent="1">
          <mxGeometry relative="1" as="geometry">
            <mxPoint x="230" y="680" as="sourcePoint" />
            <mxPoint x="-40" y="570" as="targetPoint" />
          </mxGeometry>
        </mxCell>
        <mxCell id="rk89OR3VtX5FbfcCzR7j-124" value="&lt;div&gt;&lt;br&gt;&lt;/div&gt;&lt;div&gt;N&lt;br&gt;&lt;/div&gt;" style="resizable=0;html=1;whiteSpace=wrap;align=right;verticalAlign=bottom;" connectable="0" vertex="1" parent="rk89OR3VtX5FbfcCzR7j-123">
          <mxGeometry x="1" relative="1" as="geometry" />
        </mxCell>
        <mxCell id="rk89OR3VtX5FbfcCzR7j-127" value="" style="endArrow=none;html=1;rounded=0;exitX=0.5;exitY=1;exitDx=0;exitDy=0;entryX=0.5;entryY=0;entryDx=0;entryDy=0;" edge="1" source="rk89OR3VtX5FbfcCzR7j-125" target="rk89OR3VtX5FbfcCzR7j-122" parent="1">
          <mxGeometry relative="1" as="geometry">
            <mxPoint x="80" y="390" as="sourcePoint" />
            <mxPoint x="-20" y="460" as="targetPoint" />
          </mxGeometry>
        </mxCell>
        <mxCell id="rk89OR3VtX5FbfcCzR7j-128" value="" style="endArrow=none;html=1;rounded=0;exitX=0.5;exitY=1;exitDx=0;exitDy=0;entryX=0.5;entryY=0;entryDx=0;entryDy=0;" edge="1" source="rk89OR3VtX5FbfcCzR7j-126" target="rk89OR3VtX5FbfcCzR7j-122" parent="1">
          <mxGeometry relative="1" as="geometry">
            <mxPoint x="30" y="340" as="sourcePoint" />
            <mxPoint x="-20" y="460" as="targetPoint" />
          </mxGeometry>
        </mxCell>
        <mxCell id="rk89OR3VtX5FbfcCzR7j-129" value="" style="endArrow=none;html=1;rounded=0;exitX=0.5;exitY=1;exitDx=0;exitDy=0;exitPerimeter=0;entryX=0.5;entryY=0;entryDx=0;entryDy=0;" edge="1" source="rk89OR3VtX5FbfcCzR7j-130" target="rk89OR3VtX5FbfcCzR7j-122" parent="1">
          <mxGeometry relative="1" as="geometry">
            <mxPoint x="-140" y="390" as="sourcePoint" />
            <mxPoint x="-150" y="430" as="targetPoint" />
          </mxGeometry>
        </mxCell>
        <mxCell id="rk89OR3VtX5FbfcCzR7j-131" value="Buys" style="shape=rhombus;perimeter=rhombusPerimeter;whiteSpace=wrap;html=1;align=center;" vertex="1" parent="1">
          <mxGeometry x="50" y="290" width="120" height="60" as="geometry" />
        </mxCell>
        <mxCell id="rk89OR3VtX5FbfcCzR7j-132" value="" style="endArrow=none;html=1;rounded=0;entryX=1;entryY=0.5;entryDx=0;entryDy=0;" edge="1" target="rk89OR3VtX5FbfcCzR7j-131" parent="1">
          <mxGeometry relative="1" as="geometry">
            <mxPoint x="250" y="210" as="sourcePoint" />
            <mxPoint x="190" y="610" as="targetPoint" />
          </mxGeometry>
        </mxCell>
        <mxCell id="rk89OR3VtX5FbfcCzR7j-133" value="N" style="resizable=0;html=1;whiteSpace=wrap;align=right;verticalAlign=bottom;" connectable="0" vertex="1" parent="rk89OR3VtX5FbfcCzR7j-132">
          <mxGeometry x="1" relative="1" as="geometry" />
        </mxCell>
        <mxCell id="rk89OR3VtX5FbfcCzR7j-135" value="" style="endArrow=none;html=1;rounded=0;exitX=0.5;exitY=1;exitDx=0;exitDy=0;entryX=0.5;entryY=0;entryDx=0;entryDy=0;" edge="1" source="rk89OR3VtX5FbfcCzR7j-134" target="rk89OR3VtX5FbfcCzR7j-122" parent="1">
          <mxGeometry relative="1" as="geometry">
            <mxPoint x="-160" y="420" as="sourcePoint" />
            <mxPoint x="-60" y="480" as="targetPoint" />
          </mxGeometry>
        </mxCell>
        <mxCell id="rk89OR3VtX5FbfcCzR7j-137" value="" style="endArrow=none;html=1;rounded=0;exitX=0.5;exitY=1;exitDx=0;exitDy=0;entryX=0.5;entryY=0;entryDx=0;entryDy=0;" edge="1" source="rk89OR3VtX5FbfcCzR7j-136" target="rk89OR3VtX5FbfcCzR7j-87" parent="1">
          <mxGeometry relative="1" as="geometry">
            <mxPoint x="100" y="-90" as="sourcePoint" />
            <mxPoint x="20" y="180" as="targetPoint" />
          </mxGeometry>
        </mxCell>
        <mxCell id="rk89OR3VtX5FbfcCzR7j-139" value="" style="endArrow=none;html=1;rounded=0;exitX=0.5;exitY=1;exitDx=0;exitDy=0;entryX=0.5;entryY=0;entryDx=0;entryDy=0;" edge="1" source="rk89OR3VtX5FbfcCzR7j-138" target="rk89OR3VtX5FbfcCzR7j-122" parent="1">
          <mxGeometry relative="1" as="geometry">
            <mxPoint x="-140" y="440" as="sourcePoint" />
            <mxPoint x="-50" y="490" as="targetPoint" />
          </mxGeometry>
        </mxCell>
        <mxCell id="rk89OR3VtX5FbfcCzR7j-125" value="Item ID (FK)" style="ellipse;whiteSpace=wrap;html=1;align=center;fontStyle=0" vertex="1" parent="1">
          <mxGeometry x="-80" y="445" width="100" height="40" as="geometry" />
        </mxCell>
        <mxCell id="rk89OR3VtX5FbfcCzR7j-126" value="Bid ID" style="ellipse;whiteSpace=wrap;html=1;align=center;fontStyle=4" vertex="1" parent="1">
          <mxGeometry x="-60" y="500" width="100" height="40" as="geometry" />
        </mxCell>
        <mxCell id="rk89OR3VtX5FbfcCzR7j-130" value="UID (FK)" style="ellipse;whiteSpace=wrap;html=1;align=center;fontStyle=0;" vertex="1" parent="1">
          <mxGeometry x="-220" y="520" width="100" height="40" as="geometry" />
        </mxCell>
        <mxCell id="rk89OR3VtX5FbfcCzR7j-134" value="MaxLimit" style="ellipse;whiteSpace=wrap;html=1;align=center;" vertex="1" parent="1">
          <mxGeometry x="-160" y="485" width="100" height="40" as="geometry" />
        </mxCell>
        <mxCell id="rk89OR3VtX5FbfcCzR7j-136" value="Increment" style="ellipse;whiteSpace=wrap;html=1;align=center;" vertex="1" parent="1">
          <mxGeometry x="-90" y="20" width="100" height="40" as="geometry" />
        </mxCell>
        <mxCell id="rk89OR3VtX5FbfcCzR7j-15" value="PWD" style="ellipse;whiteSpace=wrap;html=1;align=center;" vertex="1" parent="1">
          <mxGeometry x="320" y="80" width="100" height="40" as="geometry" />
        </mxCell>
        <mxCell id="rk89OR3VtX5FbfcCzR7j-16" value="UserName" style="ellipse;whiteSpace=wrap;html=1;align=center;" vertex="1" parent="1">
          <mxGeometry x="250" y="120" width="100" height="40" as="geometry" />
        </mxCell>
        <mxCell id="rk89OR3VtX5FbfcCzR7j-22" value="UID" style="ellipse;whiteSpace=wrap;html=1;align=center;fontStyle=4;" vertex="1" parent="1">
          <mxGeometry x="180" y="90" width="100" height="40" as="geometry" />
        </mxCell>
        <mxCell id="rk89OR3VtX5FbfcCzR7j-90" value="Item No (FK)" style="ellipse;whiteSpace=wrap;html=1;align=center;" vertex="1" parent="1">
          <mxGeometry x="-70" y="120" width="100" height="40" as="geometry" />
        </mxCell>
        <mxCell id="rk89OR3VtX5FbfcCzR7j-91" value="Item ID" style="ellipse;whiteSpace=wrap;html=1;align=center;fontStyle=4" vertex="1" parent="1">
          <mxGeometry x="-40" y="50" width="100" height="40" as="geometry" />
        </mxCell>
        <mxCell id="rk89OR3VtX5FbfcCzR7j-95" value="UID (FK)" style="ellipse;whiteSpace=wrap;html=1;align=center;fontStyle=0;" vertex="1" parent="1">
          <mxGeometry y="90" width="100" height="40" as="geometry" />
        </mxCell>
        <mxCell id="rk89OR3VtX5FbfcCzR7j-101" value="Item No (FK)" style="ellipse;whiteSpace=wrap;html=1;align=center;" vertex="1" parent="1">
          <mxGeometry x="-140" y="60" width="100" height="40" as="geometry" />
        </mxCell>
        <mxCell id="rk89OR3VtX5FbfcCzR7j-113" value="Init Price" style="ellipse;whiteSpace=wrap;html=1;align=center;" vertex="1" parent="1">
          <mxGeometry x="-160" y="110" width="100" height="40" as="geometry" />
        </mxCell>
        <mxCell id="rk89OR3VtX5FbfcCzR7j-115" value="Secret Min" style="ellipse;whiteSpace=wrap;html=1;align=center;" vertex="1" parent="1">
          <mxGeometry x="-240" y="90" width="100" height="40" as="geometry" />
        </mxCell>
        <mxCell id="rk89OR3VtX5FbfcCzR7j-119" value="End Time" style="ellipse;whiteSpace=wrap;html=1;align=center;" vertex="1" parent="1">
          <mxGeometry x="-250" y="140" width="100" height="40" as="geometry" />
        </mxCell>
        <mxCell id="rk89OR3VtX5FbfcCzR7j-46" value="fi.name" style="ellipse;whiteSpace=wrap;html=1;align=center;" vertex="1" parent="1">
          <mxGeometry x="150" y="480" width="100" height="40" as="geometry" />
        </mxCell>
        <mxCell id="rk89OR3VtX5FbfcCzR7j-48" value="la.name" style="ellipse;whiteSpace=wrap;html=1;align=center;" vertex="1" parent="1">
          <mxGeometry x="140" y="530" width="100" height="40" as="geometry" />
        </mxCell>
        <mxCell id="rk89OR3VtX5FbfcCzR7j-50" value="addr" style="ellipse;whiteSpace=wrap;html=1;align=center;" vertex="1" parent="1">
          <mxGeometry x="200" y="570" width="100" height="40" as="geometry" />
        </mxCell>
        <mxCell id="rk89OR3VtX5FbfcCzR7j-52" value="email" style="ellipse;whiteSpace=wrap;html=1;align=center;fontStyle=0" vertex="1" parent="1">
          <mxGeometry x="240" y="520" width="100" height="40" as="geometry" />
        </mxCell>
        <mxCell id="rk89OR3VtX5FbfcCzR7j-54" value="no" style="ellipse;whiteSpace=wrap;html=1;align=center;fontStyle=0" vertex="1" parent="1">
          <mxGeometry x="320" y="560" width="100" height="40" as="geometry" />
        </mxCell>
        <mxCell id="rk89OR3VtX5FbfcCzR7j-62" value="UID(FK)" style="ellipse;whiteSpace=wrap;html=1;align=center;fontStyle=4" vertex="1" parent="1">
          <mxGeometry x="330" y="490" width="100" height="40" as="geometry" />
        </mxCell>
        <mxCell id="rk89OR3VtX5FbfcCzR7j-64" value="fi.name" style="ellipse;whiteSpace=wrap;html=1;align=center;" vertex="1" parent="1">
          <mxGeometry x="550" y="510" width="100" height="40" as="geometry" />
        </mxCell>
        <mxCell id="rk89OR3VtX5FbfcCzR7j-66" value="la.name" style="ellipse;whiteSpace=wrap;html=1;align=center;" vertex="1" parent="1">
          <mxGeometry x="540" y="560" width="100" height="40" as="geometry" />
        </mxCell>
        <mxCell id="rk89OR3VtX5FbfcCzR7j-68" value="addr" style="ellipse;whiteSpace=wrap;html=1;align=center;" vertex="1" parent="1">
          <mxGeometry x="590" y="605" width="100" height="40" as="geometry" />
        </mxCell>
        <mxCell id="rk89OR3VtX5FbfcCzR7j-70" value="email" style="ellipse;whiteSpace=wrap;html=1;align=center;fontStyle=0" vertex="1" parent="1">
          <mxGeometry x="640" y="540" width="100" height="40" as="geometry" />
        </mxCell>
        <mxCell id="rk89OR3VtX5FbfcCzR7j-72" value="no" style="ellipse;whiteSpace=wrap;html=1;align=center;fontStyle=0" vertex="1" parent="1">
          <mxGeometry x="700" y="580" width="100" height="40" as="geometry" />
        </mxCell>
        <mxCell id="rk89OR3VtX5FbfcCzR7j-75" value="SID(FK)" style="ellipse;whiteSpace=wrap;html=1;align=center;fontStyle=4" vertex="1" parent="1">
          <mxGeometry x="780" y="610" width="100" height="40" as="geometry" />
        </mxCell>
        <mxCell id="rk89OR3VtX5FbfcCzR7j-83" value="ssn" style="ellipse;whiteSpace=wrap;html=1;align=center;fontStyle=4" vertex="1" parent="1">
          <mxGeometry x="780" y="550" width="100" height="40" as="geometry" />
        </mxCell>
        <mxCell id="rk89OR3VtX5FbfcCzR7j-84" value="&lt;div&gt;salary&lt;/div&gt;" style="ellipse;whiteSpace=wrap;html=1;align=center;fontStyle=0" vertex="1" parent="1">
          <mxGeometry x="760" y="500" width="100" height="40" as="geometry" />
        </mxCell>
        <mxCell id="rk89OR3VtX5FbfcCzR7j-151" value="Bidding Item" style="shape=rhombus;perimeter=rhombusPerimeter;whiteSpace=wrap;html=1;align=center;" vertex="1" parent="1">
          <mxGeometry x="-140" y="280" width="120" height="60" as="geometry" />
        </mxCell>
        <mxCell id="rk89OR3VtX5FbfcCzR7j-152" value="" style="endArrow=none;html=1;rounded=0;entryX=0.5;entryY=0;entryDx=0;entryDy=0;exitX=0.5;exitY=1;exitDx=0;exitDy=0;" edge="1" target="rk89OR3VtX5FbfcCzR7j-151" parent="1" source="rk89OR3VtX5FbfcCzR7j-87">
          <mxGeometry relative="1" as="geometry">
            <mxPoint x="40" y="270" as="sourcePoint" />
            <mxPoint x="320" y="660" as="targetPoint" />
          </mxGeometry>
        </mxCell>
        <mxCell id="rk89OR3VtX5FbfcCzR7j-153" value="1" style="resizable=0;html=1;whiteSpace=wrap;align=right;verticalAlign=bottom;" connectable="0" vertex="1" parent="rk89OR3VtX5FbfcCzR7j-152">
          <mxGeometry x="1" relative="1" as="geometry" />
        </mxCell>
        <mxCell id="rk89OR3VtX5FbfcCzR7j-149" value="" style="endArrow=none;html=1;rounded=0;exitX=0.5;exitY=1;exitDx=0;exitDy=0;entryX=0.5;entryY=1;entryDx=0;entryDy=0;" edge="1" target="rk89OR3VtX5FbfcCzR7j-151" parent="1" source="rk89OR3VtX5FbfcCzR7j-122">
          <mxGeometry relative="1" as="geometry">
            <mxPoint x="-210.00000000000023" y="350" as="sourcePoint" />
            <mxPoint x="-149.99999999999977" y="330" as="targetPoint" />
          </mxGeometry>
        </mxCell>
        <mxCell id="rk89OR3VtX5FbfcCzR7j-150" value="&lt;div&gt;&lt;br&gt;&lt;/div&gt;&lt;div&gt;N&lt;br&gt;&lt;/div&gt;" style="resizable=0;html=1;whiteSpace=wrap;align=right;verticalAlign=bottom;direction=west;" connectable="0" vertex="1" parent="rk89OR3VtX5FbfcCzR7j-149">
          <mxGeometry x="1" relative="1" as="geometry" />
        </mxCell>
        <mxCell id="rk89OR3VtX5FbfcCzR7j-155" value="HighBidUID" style="ellipse;whiteSpace=wrap;html=1;align=center;" vertex="1" parent="1">
          <mxGeometry x="-230" y="40" width="100" height="40" as="geometry" />
        </mxCell>
        <mxCell id="rk89OR3VtX5FbfcCzR7j-157" value="" style="group" vertex="1" connectable="0" parent="1">
          <mxGeometry x="-280" y="410" width="130" height="80" as="geometry" />
        </mxCell>
        <mxCell id="rk89OR3VtX5FbfcCzR7j-138" value="Is Alert" style="ellipse;whiteSpace=wrap;html=1;align=center;" vertex="1" parent="rk89OR3VtX5FbfcCzR7j-157">
          <mxGeometry x="30" y="40" width="100" height="40" as="geometry" />
        </mxCell>
        <mxCell id="rk89OR3VtX5FbfcCzR7j-148" value="&lt;div&gt;only alert based&lt;/div&gt;&lt;div&gt;if they want?&lt;/div&gt;" style="text;html=1;align=center;verticalAlign=middle;resizable=0;points=[];autosize=1;strokeColor=none;fillColor=none;" vertex="1" parent="rk89OR3VtX5FbfcCzR7j-157">
          <mxGeometry width="110" height="40" as="geometry" />
        </mxCell>
        <mxCell id="rk89OR3VtX5FbfcCzR7j-159" value="Item Info" style="whiteSpace=wrap;html=1;align=center;direction=north;" vertex="1" parent="1">
          <mxGeometry x="-535" y="305" width="90" height="40" as="geometry" />
        </mxCell>
        <mxCell id="rk89OR3VtX5FbfcCzR7j-160" value="" style="endArrow=none;html=1;rounded=0;exitX=1;exitY=0;exitDx=0;exitDy=0;entryX=0.5;entryY=0;entryDx=0;entryDy=0;" edge="1" source="rk89OR3VtX5FbfcCzR7j-169" target="rk89OR3VtX5FbfcCzR7j-159" parent="1">
          <mxGeometry relative="1" as="geometry">
            <mxPoint x="-445" y="305" as="sourcePoint" />
            <mxPoint x="-455" y="325" as="targetPoint" />
          </mxGeometry>
        </mxCell>
        <mxCell id="rk89OR3VtX5FbfcCzR7j-161" value="" style="endArrow=none;html=1;rounded=0;exitX=1;exitY=0.5;exitDx=0;exitDy=0;entryX=0.5;entryY=0;entryDx=0;entryDy=0;" edge="1" source="rk89OR3VtX5FbfcCzR7j-170" target="rk89OR3VtX5FbfcCzR7j-159" parent="1">
          <mxGeometry relative="1" as="geometry">
            <mxPoint x="-495" y="255" as="sourcePoint" />
            <mxPoint x="-455" y="325" as="targetPoint" />
          </mxGeometry>
        </mxCell>
        <mxCell id="rk89OR3VtX5FbfcCzR7j-162" value="" style="endArrow=none;html=1;rounded=0;exitX=1;exitY=0.5;exitDx=0;exitDy=0;entryX=0.5;entryY=0;entryDx=0;entryDy=0;" edge="1" source="rk89OR3VtX5FbfcCzR7j-171" target="rk89OR3VtX5FbfcCzR7j-159" parent="1">
          <mxGeometry relative="1" as="geometry">
            <mxPoint x="-665" y="305" as="sourcePoint" />
            <mxPoint x="-455" y="325" as="targetPoint" />
          </mxGeometry>
        </mxCell>
        <mxCell id="rk89OR3VtX5FbfcCzR7j-167" value="" style="endArrow=none;html=1;rounded=0;exitX=0.5;exitY=1;exitDx=0;exitDy=0;entryX=0.5;entryY=0;entryDx=0;entryDy=0;" edge="1" source="rk89OR3VtX5FbfcCzR7j-168" target="rk89OR3VtX5FbfcCzR7j-159" parent="1">
          <mxGeometry relative="1" as="geometry">
            <mxPoint x="-425" y="105" as="sourcePoint" />
            <mxPoint x="-455" y="325" as="targetPoint" />
          </mxGeometry>
        </mxCell>
        <mxCell id="rk89OR3VtX5FbfcCzR7j-168" value="Item Name" style="ellipse;whiteSpace=wrap;html=1;align=center;" vertex="1" parent="1">
          <mxGeometry x="-625" y="255" width="100" height="40" as="geometry" />
        </mxCell>
        <mxCell id="rk89OR3VtX5FbfcCzR7j-169" value="S_Item Type ID (FK)" style="ellipse;whiteSpace=wrap;html=1;align=center;" vertex="1" parent="1">
          <mxGeometry x="-635" y="385" width="100" height="50" as="geometry" />
        </mxCell>
        <mxCell id="rk89OR3VtX5FbfcCzR7j-170" value="Item No" style="ellipse;whiteSpace=wrap;html=1;align=center;fontStyle=4" vertex="1" parent="1">
          <mxGeometry x="-705" y="295" width="100" height="40" as="geometry" />
        </mxCell>
        <mxCell id="rk89OR3VtX5FbfcCzR7j-171" value="Item Description " style="ellipse;whiteSpace=wrap;html=1;align=center;fontStyle=0;" vertex="1" parent="1">
          <mxGeometry x="-655" y="335" width="100" height="40" as="geometry" />
        </mxCell>
        <mxCell id="rk89OR3VtX5FbfcCzR7j-181" value="Start Time" style="ellipse;whiteSpace=wrap;html=1;align=center;" vertex="1" parent="1">
          <mxGeometry x="-170" y="-10" width="100" height="40" as="geometry" />
        </mxCell>
        <mxCell id="rk89OR3VtX5FbfcCzR7j-187" value="Has Info" style="shape=rhombus;perimeter=rhombusPerimeter;whiteSpace=wrap;html=1;align=center;" vertex="1" parent="1">
          <mxGeometry x="-320" y="280" width="120" height="60" as="geometry" />
        </mxCell>
        <mxCell id="rk89OR3VtX5FbfcCzR7j-188" value="" style="endArrow=none;html=1;rounded=0;entryX=1;entryY=0.5;entryDx=0;entryDy=0;exitX=0.5;exitY=1;exitDx=0;exitDy=0;" edge="1" target="rk89OR3VtX5FbfcCzR7j-187" parent="1" source="rk89OR3VtX5FbfcCzR7j-87">
          <mxGeometry relative="1" as="geometry">
            <mxPoint x="-210" y="240" as="sourcePoint" />
            <mxPoint x="190" y="670" as="targetPoint" />
          </mxGeometry>
        </mxCell>
        <mxCell id="rk89OR3VtX5FbfcCzR7j-189" value="1" style="resizable=0;html=1;whiteSpace=wrap;align=right;verticalAlign=bottom;" connectable="0" vertex="1" parent="rk89OR3VtX5FbfcCzR7j-188">
          <mxGeometry x="1" relative="1" as="geometry" />
        </mxCell>
        <mxCell id="rk89OR3VtX5FbfcCzR7j-190" value="" style="endArrow=none;html=1;rounded=0;exitX=0.5;exitY=1;exitDx=0;exitDy=0;entryX=0;entryY=0.5;entryDx=0;entryDy=0;" edge="1" target="rk89OR3VtX5FbfcCzR7j-187" parent="1" source="rk89OR3VtX5FbfcCzR7j-159">
          <mxGeometry relative="1" as="geometry">
            <mxPoint x="-210" y="380" as="sourcePoint" />
            <mxPoint x="-279.9999999999998" y="340" as="targetPoint" />
          </mxGeometry>
        </mxCell>
        <mxCell id="rk89OR3VtX5FbfcCzR7j-191" value="1" style="resizable=0;html=1;whiteSpace=wrap;align=right;verticalAlign=bottom;direction=west;" connectable="0" vertex="1" parent="rk89OR3VtX5FbfcCzR7j-190">
          <mxGeometry x="1" relative="1" as="geometry" />
        </mxCell>
        <mxCell id="rk89OR3VtX5FbfcCzR7j-192" value="Item Fields" style="whiteSpace=wrap;html=1;align=center;direction=north;" vertex="1" parent="1">
          <mxGeometry x="-405" y="555" width="90" height="40" as="geometry" />
        </mxCell>
        <mxCell id="rk89OR3VtX5FbfcCzR7j-193" value="" style="endArrow=none;html=1;rounded=0;exitX=1;exitY=0;exitDx=0;exitDy=0;entryX=0.5;entryY=0;entryDx=0;entryDy=0;" edge="1" source="rk89OR3VtX5FbfcCzR7j-198" target="rk89OR3VtX5FbfcCzR7j-192" parent="1">
          <mxGeometry relative="1" as="geometry">
            <mxPoint x="-355" y="540" as="sourcePoint" />
            <mxPoint x="-365" y="560" as="targetPoint" />
          </mxGeometry>
        </mxCell>
        <mxCell id="rk89OR3VtX5FbfcCzR7j-194" value="" style="endArrow=none;html=1;rounded=0;exitX=1;exitY=0.5;exitDx=0;exitDy=0;entryX=0.5;entryY=0;entryDx=0;entryDy=0;" edge="1" source="rk89OR3VtX5FbfcCzR7j-199" target="rk89OR3VtX5FbfcCzR7j-192" parent="1">
          <mxGeometry relative="1" as="geometry">
            <mxPoint x="-405" y="490" as="sourcePoint" />
            <mxPoint x="-365" y="560" as="targetPoint" />
          </mxGeometry>
        </mxCell>
        <mxCell id="rk89OR3VtX5FbfcCzR7j-195" value="" style="endArrow=none;html=1;rounded=0;exitX=1;exitY=0.5;exitDx=0;exitDy=0;entryX=0.5;entryY=0;entryDx=0;entryDy=0;" edge="1" source="rk89OR3VtX5FbfcCzR7j-200" target="rk89OR3VtX5FbfcCzR7j-192" parent="1">
          <mxGeometry relative="1" as="geometry">
            <mxPoint x="-575" y="540" as="sourcePoint" />
            <mxPoint x="-365" y="560" as="targetPoint" />
          </mxGeometry>
        </mxCell>
        <mxCell id="rk89OR3VtX5FbfcCzR7j-196" value="" style="endArrow=none;html=1;rounded=0;exitX=0.5;exitY=1;exitDx=0;exitDy=0;entryX=0.5;entryY=0;entryDx=0;entryDy=0;" edge="1" source="rk89OR3VtX5FbfcCzR7j-197" target="rk89OR3VtX5FbfcCzR7j-192" parent="1">
          <mxGeometry relative="1" as="geometry">
            <mxPoint x="-335" y="340" as="sourcePoint" />
            <mxPoint x="-365" y="560" as="targetPoint" />
          </mxGeometry>
        </mxCell>
        <mxCell id="rk89OR3VtX5FbfcCzR7j-197" value="Field No (FK)" style="ellipse;whiteSpace=wrap;html=1;align=center;" vertex="1" parent="1">
          <mxGeometry x="-495" y="510" width="100" height="40" as="geometry" />
        </mxCell>
        <mxCell id="rk89OR3VtX5FbfcCzR7j-198" value="Value" style="ellipse;whiteSpace=wrap;html=1;align=center;" vertex="1" parent="1">
          <mxGeometry x="-485" y="665" width="100" height="40" as="geometry" />
        </mxCell>
        <mxCell id="rk89OR3VtX5FbfcCzR7j-199" value="Item No" style="ellipse;whiteSpace=wrap;html=1;align=center;fontStyle=4" vertex="1" parent="1">
          <mxGeometry x="-585" y="550" width="100" height="40" as="geometry" />
        </mxCell>
        <mxCell id="rk89OR3VtX5FbfcCzR7j-200" value="IF_ID" style="ellipse;whiteSpace=wrap;html=1;align=center;fontStyle=4;" vertex="1" parent="1">
          <mxGeometry x="-545" y="605" width="100" height="40" as="geometry" />
        </mxCell>
        <mxCell id="rk89OR3VtX5FbfcCzR7j-201" value="Has Fields" style="shape=rhombus;perimeter=rhombusPerimeter;whiteSpace=wrap;html=1;align=center;" vertex="1" parent="1">
          <mxGeometry x="-470" y="400" width="120" height="60" as="geometry" />
        </mxCell>
        <mxCell id="rk89OR3VtX5FbfcCzR7j-202" value="" style="endArrow=none;html=1;rounded=0;entryX=0.5;entryY=0;entryDx=0;entryDy=0;exitX=0;exitY=0.5;exitDx=0;exitDy=0;" edge="1" target="rk89OR3VtX5FbfcCzR7j-201" parent="1" source="rk89OR3VtX5FbfcCzR7j-159">
          <mxGeometry relative="1" as="geometry">
            <mxPoint x="-240" y="380" as="sourcePoint" />
            <mxPoint x="30" y="820" as="targetPoint" />
          </mxGeometry>
        </mxCell>
        <mxCell id="rk89OR3VtX5FbfcCzR7j-203" value="1" style="resizable=0;html=1;whiteSpace=wrap;align=right;verticalAlign=bottom;" connectable="0" vertex="1" parent="rk89OR3VtX5FbfcCzR7j-202">
          <mxGeometry x="1" relative="1" as="geometry" />
        </mxCell>
        <mxCell id="rk89OR3VtX5FbfcCzR7j-204" value="" style="endArrow=none;html=1;rounded=0;exitX=1;exitY=0.5;exitDx=0;exitDy=0;entryX=0.5;entryY=1;entryDx=0;entryDy=0;" edge="1" target="rk89OR3VtX5FbfcCzR7j-201" parent="1" source="rk89OR3VtX5FbfcCzR7j-192">
          <mxGeometry relative="1" as="geometry">
            <mxPoint x="-430" y="440" as="sourcePoint" />
            <mxPoint x="-439.9999999999998" y="490" as="targetPoint" />
          </mxGeometry>
        </mxCell>
        <mxCell id="rk89OR3VtX5FbfcCzR7j-205" value="1" style="resizable=0;html=1;whiteSpace=wrap;align=right;verticalAlign=bottom;direction=west;" connectable="0" vertex="1" parent="rk89OR3VtX5FbfcCzR7j-204">
          <mxGeometry x="1" relative="1" as="geometry" />
        </mxCell>
        <mxCell id="rk89OR3VtX5FbfcCzR7j-206" value="Sub Item Types" style="whiteSpace=wrap;html=1;align=center;direction=east;" vertex="1" parent="1">
          <mxGeometry x="-420" y="80" width="100" height="40" as="geometry" />
        </mxCell>
        <mxCell id="rk89OR3VtX5FbfcCzR7j-207" value="" style="endArrow=none;html=1;rounded=0;exitX=1;exitY=0;exitDx=0;exitDy=0;entryX=0.5;entryY=0;entryDx=0;entryDy=0;" edge="1" source="rk89OR3VtX5FbfcCzR7j-212" target="rk89OR3VtX5FbfcCzR7j-206" parent="1">
          <mxGeometry relative="1" as="geometry">
            <mxPoint x="-500" y="110" as="sourcePoint" />
            <mxPoint x="-510" y="130" as="targetPoint" />
          </mxGeometry>
        </mxCell>
        <mxCell id="rk89OR3VtX5FbfcCzR7j-208" value="" style="endArrow=none;html=1;rounded=0;exitX=1;exitY=0.5;exitDx=0;exitDy=0;entryX=0.5;entryY=0;entryDx=0;entryDy=0;" edge="1" source="rk89OR3VtX5FbfcCzR7j-212" target="rk89OR3VtX5FbfcCzR7j-206" parent="1">
          <mxGeometry relative="1" as="geometry">
            <mxPoint x="-550" y="60" as="sourcePoint" />
            <mxPoint x="-510" y="130" as="targetPoint" />
          </mxGeometry>
        </mxCell>
        <mxCell id="rk89OR3VtX5FbfcCzR7j-209" value="" style="endArrow=none;html=1;rounded=0;exitX=0.5;exitY=1;exitDx=0;exitDy=0;entryX=0.5;entryY=0;entryDx=0;entryDy=0;" edge="1" source="rk89OR3VtX5FbfcCzR7j-214" target="rk89OR3VtX5FbfcCzR7j-206" parent="1">
          <mxGeometry relative="1" as="geometry">
            <mxPoint x="-720" y="110" as="sourcePoint" />
            <mxPoint x="-510" y="130" as="targetPoint" />
          </mxGeometry>
        </mxCell>
        <mxCell id="rk89OR3VtX5FbfcCzR7j-210" value="" style="endArrow=none;html=1;rounded=0;exitX=0.5;exitY=1;exitDx=0;exitDy=0;entryX=0.5;entryY=0;entryDx=0;entryDy=0;" edge="1" source="rk89OR3VtX5FbfcCzR7j-211" target="rk89OR3VtX5FbfcCzR7j-206" parent="1">
          <mxGeometry relative="1" as="geometry">
            <mxPoint x="-480" y="-90" as="sourcePoint" />
            <mxPoint x="-510" y="130" as="targetPoint" />
          </mxGeometry>
        </mxCell>
        <mxCell id="rk89OR3VtX5FbfcCzR7j-211" value="S_Item Type ID" style="ellipse;whiteSpace=wrap;html=1;align=center;fontStyle=4" vertex="1" parent="1">
          <mxGeometry x="-360" y="-20" width="100" height="40" as="geometry" />
        </mxCell>
        <mxCell id="rk89OR3VtX5FbfcCzR7j-213" value="M_Item No (FK)" style="ellipse;whiteSpace=wrap;html=1;align=center;fontStyle=0;direction=east;" vertex="1" parent="1">
          <mxGeometry x="-440" y="-60" width="100" height="40" as="geometry" />
        </mxCell>
        <mxCell id="rk89OR3VtX5FbfcCzR7j-214" value="Type Name" style="ellipse;whiteSpace=wrap;html=1;align=center;fontStyle=0;" vertex="1" parent="1">
          <mxGeometry x="-510" y="-20" width="100" height="40" as="geometry" />
        </mxCell>
        <mxCell id="rk89OR3VtX5FbfcCzR7j-215" value="Contains Types" style="shape=rhombus;perimeter=rhombusPerimeter;whiteSpace=wrap;html=1;align=center;direction=west;" vertex="1" parent="1">
          <mxGeometry x="-450" y="170" width="120" height="60" as="geometry" />
        </mxCell>
        <mxCell id="rk89OR3VtX5FbfcCzR7j-216" value="" style="endArrow=none;html=1;rounded=0;exitX=0.5;exitY=1;exitDx=0;exitDy=0;entryX=0.5;entryY=1;entryDx=0;entryDy=0;" edge="1" source="rk89OR3VtX5FbfcCzR7j-206" target="rk89OR3VtX5FbfcCzR7j-215" parent="1">
          <mxGeometry relative="1" as="geometry">
            <mxPoint x="-550" y="75" as="sourcePoint" />
            <mxPoint x="-559.9999999999998" y="125" as="targetPoint" />
          </mxGeometry>
        </mxCell>
        <mxCell id="rk89OR3VtX5FbfcCzR7j-217" value="N" style="resizable=0;html=1;whiteSpace=wrap;align=right;verticalAlign=bottom;direction=west;" connectable="0" vertex="1" parent="rk89OR3VtX5FbfcCzR7j-216">
          <mxGeometry x="1" relative="1" as="geometry" />
        </mxCell>
        <mxCell id="rk89OR3VtX5FbfcCzR7j-218" value="" style="endArrow=none;html=1;rounded=0;entryX=0.5;entryY=0;entryDx=0;entryDy=0;exitX=1;exitY=0.5;exitDx=0;exitDy=0;" edge="1" target="rk89OR3VtX5FbfcCzR7j-215" parent="1" source="rk89OR3VtX5FbfcCzR7j-159">
          <mxGeometry relative="1" as="geometry">
            <mxPoint x="-435" y="-55" as="sourcePoint" />
            <mxPoint x="-90" y="455" as="targetPoint" />
          </mxGeometry>
        </mxCell>
        <mxCell id="rk89OR3VtX5FbfcCzR7j-219" value="N" style="resizable=0;html=1;whiteSpace=wrap;align=right;verticalAlign=bottom;" connectable="0" vertex="1" parent="rk89OR3VtX5FbfcCzR7j-218">
          <mxGeometry x="1" relative="1" as="geometry" />
        </mxCell>
        <mxCell id="rk89OR3VtX5FbfcCzR7j-222" value="" style="endArrow=none;html=1;rounded=0;exitX=0.5;exitY=1;exitDx=0;exitDy=0;entryX=0.5;entryY=0;entryDx=0;entryDy=0;" edge="1" parent="1" source="rk89OR3VtX5FbfcCzR7j-213" target="rk89OR3VtX5FbfcCzR7j-206">
          <mxGeometry relative="1" as="geometry">
            <mxPoint x="-390" y="-60" as="sourcePoint" />
            <mxPoint x="-370" y="80" as="targetPoint" />
          </mxGeometry>
        </mxCell>
        <mxCell id="rk89OR3VtX5FbfcCzR7j-212" value="Fields IDs" style="ellipse;whiteSpace=wrap;html=1;align=center;" vertex="1" parent="1">
          <mxGeometry x="-430" y="20" width="100" height="40" as="geometry" />
        </mxCell>
        <mxCell id="rk89OR3VtX5FbfcCzR7j-224" value="Item Types" style="whiteSpace=wrap;html=1;align=center;direction=east;" vertex="1" parent="1">
          <mxGeometry x="-760" y="-40" width="100" height="40" as="geometry" />
        </mxCell>
        <mxCell id="rk89OR3VtX5FbfcCzR7j-227" value="" style="endArrow=none;html=1;rounded=0;exitX=0.5;exitY=1;exitDx=0;exitDy=0;entryX=0.5;entryY=0;entryDx=0;entryDy=0;" edge="1" source="rk89OR3VtX5FbfcCzR7j-230" target="rk89OR3VtX5FbfcCzR7j-224" parent="1">
          <mxGeometry relative="1" as="geometry">
            <mxPoint x="-1020" y="-40" as="sourcePoint" />
            <mxPoint x="-810" y="-20" as="targetPoint" />
          </mxGeometry>
        </mxCell>
        <mxCell id="rk89OR3VtX5FbfcCzR7j-229" value="M_Item No" style="ellipse;whiteSpace=wrap;html=1;align=center;fontStyle=4;direction=east;" vertex="1" parent="1">
          <mxGeometry x="-705" y="-120" width="100" height="40" as="geometry" />
        </mxCell>
        <mxCell id="rk89OR3VtX5FbfcCzR7j-230" value="Type Name" style="ellipse;whiteSpace=wrap;html=1;align=center;fontStyle=0;" vertex="1" parent="1">
          <mxGeometry x="-820" y="-120" width="100" height="40" as="geometry" />
        </mxCell>
        <mxCell id="rk89OR3VtX5FbfcCzR7j-231" value="Contains Sub Types" style="shape=rhombus;perimeter=rhombusPerimeter;whiteSpace=wrap;html=1;align=center;direction=west;" vertex="1" parent="1">
          <mxGeometry x="-670" y="30" width="130" height="70" as="geometry" />
        </mxCell>
        <mxCell id="rk89OR3VtX5FbfcCzR7j-232" value="" style="endArrow=none;html=1;rounded=0;exitX=0.5;exitY=1;exitDx=0;exitDy=0;entryX=0.5;entryY=1;entryDx=0;entryDy=0;" edge="1" source="rk89OR3VtX5FbfcCzR7j-224" target="rk89OR3VtX5FbfcCzR7j-231" parent="1">
          <mxGeometry relative="1" as="geometry">
            <mxPoint x="-770" y="-65" as="sourcePoint" />
            <mxPoint x="-779.9999999999998" y="-15" as="targetPoint" />
          </mxGeometry>
        </mxCell>
        <mxCell id="rk89OR3VtX5FbfcCzR7j-233" value="N" style="resizable=0;html=1;whiteSpace=wrap;align=right;verticalAlign=bottom;direction=west;" connectable="0" vertex="1" parent="rk89OR3VtX5FbfcCzR7j-232">
          <mxGeometry x="1" relative="1" as="geometry" />
        </mxCell>
        <mxCell id="rk89OR3VtX5FbfcCzR7j-234" value="" style="endArrow=none;html=1;rounded=0;entryX=0.5;entryY=0;entryDx=0;entryDy=0;exitX=0;exitY=0.5;exitDx=0;exitDy=0;" edge="1" target="rk89OR3VtX5FbfcCzR7j-231" parent="1" source="rk89OR3VtX5FbfcCzR7j-206">
          <mxGeometry relative="1" as="geometry">
            <mxPoint x="-535" y="130" as="sourcePoint" />
            <mxPoint x="-310" y="315" as="targetPoint" />
          </mxGeometry>
        </mxCell>
        <mxCell id="rk89OR3VtX5FbfcCzR7j-235" value="N" style="resizable=0;html=1;whiteSpace=wrap;align=right;verticalAlign=bottom;" connectable="0" vertex="1" parent="rk89OR3VtX5FbfcCzR7j-234">
          <mxGeometry x="1" relative="1" as="geometry" />
        </mxCell>
        <mxCell id="rk89OR3VtX5FbfcCzR7j-236" value="" style="endArrow=none;html=1;rounded=0;exitX=0.5;exitY=1;exitDx=0;exitDy=0;entryX=0.5;entryY=0;entryDx=0;entryDy=0;" edge="1" source="rk89OR3VtX5FbfcCzR7j-229" target="rk89OR3VtX5FbfcCzR7j-224" parent="1">
          <mxGeometry relative="1" as="geometry">
            <mxPoint x="-690" y="-210" as="sourcePoint" />
            <mxPoint x="-670" y="-70" as="targetPoint" />
          </mxGeometry>
        </mxCell>
        <mxCell id="rk89OR3VtX5FbfcCzR7j-238" value="Has Fields" style="shape=rhombus;perimeter=rhombusPerimeter;whiteSpace=wrap;html=1;align=center;direction=west;" vertex="1" parent="1">
          <mxGeometry x="-695" y="160" width="130" height="70" as="geometry" />
        </mxCell>
        <mxCell id="rk89OR3VtX5FbfcCzR7j-239" value="" style="endArrow=none;html=1;rounded=0;entryX=1;entryY=0.5;entryDx=0;entryDy=0;exitX=1;exitY=0.5;exitDx=0;exitDy=0;" edge="1" target="rk89OR3VtX5FbfcCzR7j-238" parent="1" source="rk89OR3VtX5FbfcCzR7j-243">
          <mxGeometry relative="1" as="geometry">
            <mxPoint x="-760" y="220" as="sourcePoint" />
            <mxPoint x="-829.9999999999998" y="85" as="targetPoint" />
          </mxGeometry>
        </mxCell>
        <mxCell id="rk89OR3VtX5FbfcCzR7j-240" value="N" style="resizable=0;html=1;whiteSpace=wrap;align=right;verticalAlign=bottom;direction=west;" connectable="0" vertex="1" parent="rk89OR3VtX5FbfcCzR7j-239">
          <mxGeometry x="1" relative="1" as="geometry" />
        </mxCell>
        <mxCell id="rk89OR3VtX5FbfcCzR7j-241" value="" style="endArrow=none;html=1;rounded=0;entryX=0;entryY=0.5;entryDx=0;entryDy=0;exitX=0;exitY=0.5;exitDx=0;exitDy=0;" edge="1" target="rk89OR3VtX5FbfcCzR7j-238" parent="1" source="rk89OR3VtX5FbfcCzR7j-206">
          <mxGeometry relative="1" as="geometry">
            <mxPoint x="-470" y="200" as="sourcePoint" />
            <mxPoint x="-360" y="415" as="targetPoint" />
          </mxGeometry>
        </mxCell>
        <mxCell id="rk89OR3VtX5FbfcCzR7j-242" value="N" style="resizable=0;html=1;whiteSpace=wrap;align=right;verticalAlign=bottom;" connectable="0" vertex="1" parent="rk89OR3VtX5FbfcCzR7j-241">
          <mxGeometry x="1" relative="1" as="geometry" />
        </mxCell>
        <mxCell id="rk89OR3VtX5FbfcCzR7j-243" value="Sub_Fields" style="whiteSpace=wrap;html=1;align=center;direction=east;" vertex="1" parent="1">
          <mxGeometry x="-870" y="200" width="100" height="40" as="geometry" />
        </mxCell>
        <mxCell id="rk89OR3VtX5FbfcCzR7j-244" value="" style="endArrow=none;html=1;rounded=0;exitX=0.5;exitY=1;exitDx=0;exitDy=0;entryX=0.5;entryY=0;entryDx=0;entryDy=0;" edge="1" source="rk89OR3VtX5FbfcCzR7j-246" target="rk89OR3VtX5FbfcCzR7j-243" parent="1">
          <mxGeometry relative="1" as="geometry">
            <mxPoint x="-1130" y="200" as="sourcePoint" />
            <mxPoint x="-920" y="220" as="targetPoint" />
          </mxGeometry>
        </mxCell>
        <mxCell id="rk89OR3VtX5FbfcCzR7j-245" value="S_F_No" style="ellipse;whiteSpace=wrap;html=1;align=center;fontStyle=0;direction=east;" vertex="1" parent="1">
          <mxGeometry x="-815" y="120" width="100" height="40" as="geometry" />
        </mxCell>
        <mxCell id="rk89OR3VtX5FbfcCzR7j-246" value="Field Name" style="ellipse;whiteSpace=wrap;html=1;align=center;fontStyle=0;" vertex="1" parent="1">
          <mxGeometry x="-930" y="120" width="100" height="40" as="geometry" />
        </mxCell>
        <mxCell id="rk89OR3VtX5FbfcCzR7j-247" value="" style="endArrow=none;html=1;rounded=0;exitX=0.5;exitY=1;exitDx=0;exitDy=0;entryX=0.5;entryY=0;entryDx=0;entryDy=0;" edge="1" source="rk89OR3VtX5FbfcCzR7j-245" target="rk89OR3VtX5FbfcCzR7j-243" parent="1">
          <mxGeometry relative="1" as="geometry">
            <mxPoint x="-800" y="30" as="sourcePoint" />
            <mxPoint x="-780" y="170" as="targetPoint" />
          </mxGeometry>
        </mxCell>
      </root>
    </mxGraphModel>
  </diagram>
</mxfile>
